<?xml version="1.0" standalone="no"?>
<svg viewBox="0 0 200 200" xmlns="http://www.w3.org/2000/svg">
  <path fill="#FF0066" d="M46.1,-78.5C60.2,-71.7,72.3,-60.2,79.5,-46.4C86.6,-32.5,88.8,-16.3,89,0.1C89.2,16.5,87.6,33.1,79.5,45.3C71.4,57.5,56.9,65.5,42.6,71.7C28.3,77.9,14.1,82.4,0,82.5C-14.2,82.6,-28.4,78.2,-41.9,71.5C-55.4,64.8,-68.1,55.8,-75,43.5C-81.9,31.1,-82.9,15.6,-82.6,0.2C-82.3,-15.2,-80.6,-30.4,-74.4,-43.9C-68.2,-57.5,-57.6,-69.4,-44.4,-76.8C-31.3,-84.2,-15.6,-87,0.2,-87.3C16,-87.6,32,-85.4,46.1,-78.5Z" transform="translate(100 100)" />
</svg>
